<?xml version="1.0" standalone="no"?>
<!DOCTYPE svg PUBLIC "-//W3C//DTD SVG 20010904//EN"
 "http://www.w3.org/TR/2001/REC-SVG-20010904/DTD/svg10.dtd">
<svg version="1.0" xmlns="http://www.w3.org/2000/svg"
 width="512.000000pt" height="512.000000pt" viewBox="0 0 512.000000 512.000000"
 preserveAspectRatio="xMidYMid meet">
<metadata>
Created by potrace 1.14, written by Peter Selinger 2001-2017
</metadata>
<g transform="translate(0.000000,512.000000) scale(0.100000,-0.100000)"
fill="#000000" stroke="none">
<path d="M1387 5084 c-1 -1 -27 -5 -57 -9 -352 -41 -675 -262 -842 -575 -50
-94 -89 -203 -114 -315 -10 -50 -14 -317 -5 -365 5 -25 12 -61 15 -80 8 -55
50 -170 93 -257 72 -145 190 -284 328 -388 131 -99 356 -192 478 -198 9 -1 17
-4 17 -7 0 -3 21 -5 48 -5 26 1 56 -2 67 -6 11 -3 32 -3 47 2 17 5 28 4 28 -2
0 -6 4 -8 8 -5 8 5 120 18 171 20 l24 1 4 -151 4 -150 -84 -32 c-289 -110
-554 -363 -694 -662 -50 -106 -99 -260 -108 -340 -19 -160 -21 -206 -11 -320
9 -119 15 -153 47 -267 81 -287 278 -560 528 -729 136 -92 339 -177 476 -199
11 -2 51 -9 89 -15 69 -12 324 -9 396 5 285 53 530 183 729 386 137 139 251
330 306 510 42 138 43 142 51 194 40 287 1 548 -118 792 -57 118 -159 266
-225 329 -13 12 -23 23 -23 26 0 3 102 107 227 232 179 179 232 226 248 222
11 -3 58 -17 105 -32 74 -23 103 -27 220 -28 149 -1 183 3 282 34 37 11 69 19
70 18 2 -2 17 7 35 20 17 12 36 22 42 22 7 0 17 4 24 10 7 5 38 27 69 47 165
109 302 305 354 508 19 73 26 285 12 376 -22 151 -117 333 -240 460 -131 135
-346 241 -516 254 -18 1 -35 4 -37 6 -5 6 -138 2 -188 -5 -257 -36 -482 -179
-624 -395 -31 -47 -57 -87 -58 -88 -1 -2 -51 3 -111 11 -60 8 -134 18 -164 21
-81 11 -100 13 -150 20 -25 4 -55 7 -67 6 -29 -1 -29 1 -37 88 -33 354 -229
667 -531 847 -52 31 -163 85 -180 88 -5 1 -14 4 -20 8 -18 10 -178 48 -235 54
-53 6 -199 12 -203 8z m275 -476 c227 -74 399 -268 446 -503 8 -41 7 -201 -1
-247 -31 -171 -139 -329 -293 -430 -36 -24 -68 -43 -72 -44 -4 0 -23 -7 -43
-16 -20 -9 -51 -19 -70 -24 -19 -4 -41 -9 -49 -11 -8 -2 -52 -5 -98 -7 -330
-15 -629 233 -676 561 -2 17 -7 37 -11 42 -3 6 -3 11 2 11 4 0 8 30 9 68 1 90
10 138 40 213 84 207 259 356 474 405 89 20 251 11 342 -18z m2333 -530 c202
-40 385 -227 426 -436 10 -54 8 -169 -4 -222 -32 -142 -157 -303 -282 -365
-33 -16 -62 -30 -65 -30 -3 -1 -25 -7 -50 -15 -63 -18 -197 -20 -261 -4 -251
64 -417 268 -424 521 -5 157 47 286 160 398 137 137 312 190 500 153z m-1315
-432 c25 -4 68 -9 95 -12 28 -3 59 -7 70 -9 11 -2 49 -7 85 -11 36 -3 66 -7
66 -8 1 0 4 -50 7 -111 11 -199 77 -368 200 -517 l39 -47 -224 -225 -224 -224
-89 43 c-201 96 -381 137 -591 136 l-80 -1 -2 43 c-2 23 -4 107 -5 186 l-2
144 60 41 c82 56 188 158 246 236 27 36 52 70 57 75 16 20 90 171 108 220 10
28 22 53 26 56 5 3 32 2 61 -2 29 -4 72 -10 97 -13z m-435 -1546 c0 -2 9 -4
55 -13 129 -27 282 -117 380 -224 144 -157 212 -335 206 -543 -3 -101 -27
-221 -48 -247 -6 -7 -8 -13 -4 -13 8 0 -46 -104 -81 -157 -93 -136 -255 -255
-408 -299 -227 -65 -473 -28 -660 100 -56 39 -157 141 -197 200 -39 57 -95
168 -102 203 -1 10 -6 25 -9 33 -42 113 -30 325 27 480 17 46 73 151 86 160 4
3 11 13 16 22 9 16 99 111 126 133 94 77 234 141 348 160 19 3 36 8 38 10 4 3
227 -1 227 -5z"/>
</g>
</svg>
