<?xml version="1.0" encoding="utf-8"?>
<!-- Generator: Adobe Illustrator 25.0.0, SVG Export Plug-In . SVG Version: 6.00 Build 0)  -->
<svg version="1.1" id="Layer_1" xmlns="http://www.w3.org/2000/svg" xmlns:xlink="http://www.w3.org/1999/xlink" x="0px" y="0px"
	 viewBox="0 0 512 392.6" style="enable-background:new 0 0 512 392.6;" xml:space="preserve">
<style type="text/css">
	.st0{fill:#747272;}
</style>
<path class="st0" d="M353.4,0c-21.1,0-39.1,13.7-45.5,32.7l-166.3,67.5H60.3C27,100.2,0,127.2,0,160.5v40.2C0,233.9,27,261,60.3,261
	h9.2v86c0,25.2,20.5,45.6,45.6,45.6c25.2,0,45.6-20.5,45.6-45.6v-78.2L309.4,329c7.4,17,24.3,29,44,29c26.4,0,47.9-21.5,47.9-47.9
	V47.9C401.4,21.5,379.8,0,353.4,0L353.4,0z M160.8,127l144.7-58.7v224.6l-144.7-58.7L160.8,127z M32,200.7v-40.2
	c0-15.6,12.7-28.3,28.3-28.3h68.5V229H60.3C44.7,229,32,216.3,32,200.7z M115.1,360.6c-7.5,0-13.6-6.1-13.6-13.6v-86h27.3v86
	C128.8,354.5,122.6,360.6,115.1,360.6z M369.4,310c0,8.8-7.2,15.9-15.9,15.9s-15.9-7.2-15.9-15.9V47.9c0-8.8,7.2-15.9,15.9-15.9
	c8.8,0,15.9,7.2,15.9,15.9L369.4,310L369.4,310z M512,179c0,8.8-7.2,16-16,16h-39.6c-8.8,0-16-7.2-16-16s7.2-16,16-16H496
	C504.8,163,512,170.2,512,179z M424.4,119.5c-4.4-7.7-1.8-17.4,5.9-21.9l34.3-19.8c7.7-4.4,17.4-1.8,21.9,5.9s1.8,17.4-5.9,21.9
	l-34.3,19.8c-2.5,1.5-5.3,2.1-8,2.1C432.8,127.5,427.4,124.7,424.4,119.5z M486.5,274.3c-3,5.1-8.3,8-13.9,8c-2.7,0-5.5-0.7-8-2.1
	l-34.3-19.8c-7.7-4.4-10.3-14.2-5.9-21.9c4.4-7.7,14.2-10.3,21.9-5.9l34.3,19.8C488.3,256.8,490.9,266.6,486.5,274.3L486.5,274.3z"
	/>
</svg>
