<svg width="16" height="14" viewBox="0 0 16 14" fill="none" xmlns="http://www.w3.org/2000/svg">
<path d="M16 1.61551C16 1.35897 15.9351 1.10613 15.8108 0.877905C15.6866 0.649677 15.5064 0.452624 15.2852 0.303049C15.0641 0.153474 14.8084 0.0556785 14.5392 0.0177533C14.2699 -0.0201718 13.995 0.00286398 13.7371 0.0849547L1.16571 4.08636C0.826147 4.19446 0.531067 4.40014 0.321968 4.67449C0.11287 4.94883 0.000269159 5.27805 0 5.61584V7.30257C0.000107261 7.6401 0.112375 7.96911 0.32104 8.24343C0.529705 8.51775 0.824288 8.72359 1.16343 8.83204L3.42857 9.55801V10.7676C3.42829 11.5429 3.72379 12.2925 4.26117 12.8795C4.79855 13.4665 5.54198 13.8519 6.35578 13.9653C7.16958 14.0786 7.99951 13.9125 8.69412 13.4971C9.38872 13.0817 9.9017 12.4447 10.1394 11.7025L13.7349 12.8518C13.9928 12.9342 14.2678 12.9576 14.5373 12.92C14.8067 12.8823 15.0627 12.7847 15.2841 12.6352C15.5055 12.4857 15.686 12.2886 15.8104 12.0603C15.9349 11.832 15.9999 11.579 16 11.3223V1.61551ZM4.57143 9.92206L9.056 11.3568C8.90535 11.857 8.56782 12.2889 8.10568 12.573C7.64355 12.857 7.088 12.9739 6.54157 12.9021C5.99514 12.8303 5.49469 12.5747 5.13259 12.1824C4.7705 11.7901 4.57118 11.2876 4.57143 10.7676V9.92206Z" fill="#13007C"/>
</svg>
