<svg xmlns="http://www.w3.org/2000/svg" width="18" height="22" viewBox="0 0 18 22">
  <path id="birthday-icon" d="M9,6a2,2,0,0,0,2-2,1.9,1.9,0,0,0-.29-1.03L9,0,7.29,2.97A1.9,1.9,0,0,0,7,4,2.006,2.006,0,0,0,9,6Zm6,3H10V7H8V9H3a3,3,0,0,0-3,3v9a1,1,0,0,0,1,1H17a1,1,0,0,0,1-1V12A3,3,0,0,0,15,9Zm1,11H2V17a3.444,3.444,0,0,0,2.4-1.01l1.09-1.07,1.07,1.07a3.543,3.543,0,0,0,4.89,0l1.08-1.07,1.07,1.07A3.444,3.444,0,0,0,16,17v3Zm0-4.5a1.909,1.909,0,0,1-1.35-.57L12.52,12.8l-2.14,2.13a2.006,2.006,0,0,1-2.77,0L5.48,12.8,3.34,14.93A1.909,1.909,0,0,1,2,15.5V12a1,1,0,0,1,1-1H15a1,1,0,0,1,1,1Z" fill="#fff"/>
</svg>
