<?xml version="1.0" standalone="yes"?>
<svg xmlns="http://www.w3.org/2000/svg" width="512" height="512">
<path style="fill:#ffffff; stroke:none;" d="M0 0L0 234L1 234C1.01559 210.462 8.25762 185.736 16.7971 164C42.9137 97.5244 96.1857 43.0738 163 17.1891C185.177 8.59756 209.996 1.01581 234 1L212 0L165 0L0 0z"/>
<path style="fill:#2F64FF; stroke:none;" d="M234 0.424377C186.39 6.67859 143.304 20.4755 104 49.0108C77.6311 68.1551 54.4432 93.0817 37.6011 121C-33.3807 238.662 -0.392578 399.897 119 473.189C141.697 487.122 166.102 498.15 192 504.625C222.645 512.286 255.616 514.518 287 510.715C324.5 506.169 359.779 493.367 392 473.797C416.794 458.738 438.704 438.587 456.8 416C545.972 304.7 523.587 137.536 411 51.2354C385.739 31.8721 356.533 17.7621 326 9C297.327 0.771515 263.758 -3.48468 234 0.424377z"/>
<path style="fill:#ffffff; stroke:none;" d="M278 0L278 1C301.538 1.0155 326.264 8.2576 348 16.7971C413.921 42.6959 467.633 95.084 494 161C503.08 183.7 510.984 209.322 511 234L512 234L512 0L278 0M244 40.4244C224.231 43.02 205.019 45.0608 186 51.6952C130.234 71.1481 83.9001 113.293 59.3086 167C2.54361 290.973 80.903 445.354 217 468.247C237.562 471.706 258.233 473.2 279 470.715C384.295 458.115 467.301 370.403 471.961 264C476.403 162.557 403.081 67.4279 304 45.5756C284.969 41.3784 263.489 37.8655 244 40.4244z"/>
<path style="fill:#2F64FF; stroke:none;" d="M236 234L166 234C155.27 234 144.257 233.881 138.688 245C132.988 256.38 139.668 271.106 152 273.876C177.892 279.691 209.485 275 236 275L236 342C236 351.649 234.484 362.539 243.093 369.211C254.031 377.686 272.099 373.137 275.468 359C277.528 350.354 276 339.861 276 331L276 275C302.515 275 334.108 279.691 360 273.876C372.332 271.106 379.012 256.38 373.312 245C367.562 233.52 355.997 234 345 234L276 234L276 177C276 168.243 277.672 157.5 275.442 149C272.099 136.258 255.692 131.288 245.004 137.995C234.664 144.482 236 155.394 236 166L236 234z"/>
<path style="fill:#ffffff; stroke:none;" d="M0 278L0 512L234 512L234 511C210.462 510.984 185.736 503.742 164 495.203C104.96 472.008 52.214 426.146 25.3094 368C16.3342 348.603 9.53224 328.862 4.88426 308C2.80398 298.663 3.62727 286.641 0 278M511 278C510.984 302.678 503.08 328.3 494 351C467.633 416.916 413.921 469.304 348 495.203C326.264 503.742 301.538 510.984 278 511L278 512L512 512L512 347L512 300L511 278z"/>
</svg>
