<?xml version="1.0" standalone="yes"?>
<svg xmlns="http://www.w3.org/2000/svg" width="512" height="512">
<path style="fill:#ffffff; stroke:none;" d="M0 0L0 234L1 234C1.01559 210.462 8.25762 185.736 16.7971 164C42.6957 98.0792 95.0842 44.3673 161 18C183.7 8.91949 209.322 1.01627 234 1L212 0L165 0L0 0z"/>
<path style="fill:#2F64FF; stroke:none;" d="M234 0.424377C186.417 6.67499 143.283 20.491 104 49.0108C77.6311 68.1551 54.4432 93.0817 37.6011 121C-33.3807 238.662 -0.392578 399.897 119 473.189C141.666 487.103 166.136 498.159 192 504.625C222.645 512.286 255.616 514.518 287 510.715C324.5 506.169 359.779 493.367 392 473.797C416.794 458.738 438.704 438.587 456.8 416C545.975 304.696 523.596 137.543 411 51.2354C385.763 31.8903 356.511 17.7557 326 9C297.327 0.771515 263.758 -3.48468 234 0.424377z"/>
<path style="fill:#ffffff; stroke:none;" d="M278 0L278 1C302.678 1.01627 328.3 8.91953 351 18C416.916 44.3673 469.304 98.0792 495.203 164C503.742 185.736 510.984 210.462 511 234L512 234L512 0L278 0M244 40.4244C224.231 43.02 205.019 45.0608 186 51.6952C130.234 71.1481 83.9001 113.293 59.3086 167C2.54361 290.973 80.903 445.354 217 468.247C237.562 471.706 258.233 473.2 279 470.715C384.295 458.115 467.301 370.403 471.961 264C476.403 162.557 403.081 67.4279 304 45.5756C284.969 41.3784 263.489 37.8655 244 40.4244z"/>
<path style="fill:#2F64FF; stroke:none;" d="M152 234.529C133.677 238.765 131.399 266.094 149 273.009C163.503 278.707 184.631 275 200 275L311 275C326.52 275 352.273 279.848 365.985 271.517C381.565 262.051 376.111 236.448 358 234.185C343.758 232.406 328.355 234 314 234L228 234L178 234C169.722 234 160.093 232.659 152 234.529z"/>
<path style="fill:#ffffff; stroke:none;" d="M0 278L0 512L234 512L234 511C210.133 510.984 184.986 503.595 163 494.8C104.38 471.351 52.1014 425.903 25.3094 368C16.3342 348.603 9.53224 328.862 4.88426 308C2.80398 298.663 3.62727 286.641 0 278M511 278C510.984 302.004 503.402 326.823 494.811 349C468.926 415.814 414.476 469.086 348 495.203C326.264 503.742 301.538 510.984 278 511L278 512L512 512L512 347L512 300L511 278z"/>
</svg>
