<svg xmlns="http://www.w3.org/2000/svg" xmlns:xlink="http://www.w3.org/1999/xlink" width="12" height="12" viewBox="0 0 12 12">
  <defs>
    <clipPath id="clip-path">
      <rect id="Rectangle_25" data-name="Rectangle 25" width="12" height="12" fill="#747272"/>
    </clipPath>
  </defs>
  <g id="Group_5" data-name="Group 5" clip-path="url(#clip-path)">
    <path id="Path_44" data-name="Path 44" d="M3,4.6a4.6,4.6,0,1,1,7.8,3.3,1.492,1.492,0,0,0-.347.474L9.865,9.729a.383.383,0,0,1-.352.231H5.682a.383.383,0,0,1-.352-.231L4.746,8.373A1.505,1.505,0,0,0,4.4,7.9,4.585,4.585,0,0,1,3,4.6ZM5.3,11.11a.383.383,0,0,1,.383-.383H9.513a.383.383,0,0,1,0,.766l-.172.343a.766.766,0,0,1-.685.424H6.538a.766.766,0,0,1-.685-.424l-.172-.343A.383.383,0,0,1,5.3,11.11Z" transform="translate(-1.468 0)" fill="#747272"/>
  </g>
</svg>
