<svg width="12" height="19" viewBox="0 0 12 19" fill="none" xmlns="http://www.w3.org/2000/svg">
<path d="M7.66663 0.666016H1.83329C1.39127 0.666016 0.967342 0.84161 0.654781 1.15417C0.342221 1.46673 0.166626 1.89065 0.166626 2.33268V13.9993C0.166626 14.4414 0.342221 14.8653 0.654781 15.1779C0.967342 15.4904 1.39127 15.666 1.83329 15.666H4.33329V18.166L5.99996 17.3327L7.66663 18.166V15.666H10.1666C10.6087 15.666 11.0326 15.4904 11.3451 15.1779C11.6577 14.8653 11.8333 14.4414 11.8333 13.9993V4.83268L7.66663 0.666016ZM7.66663 11.4993V13.166L5.99996 12.3327L4.33329 13.166V11.4993L2.66663 10.666L4.33329 9.83268V8.16602L5.99996 8.99935L7.66663 8.16602V9.83268L9.33329 10.666L7.66663 11.4993ZM6.83329 5.66602V1.91602L10.5833 5.66602H6.83329Z" fill="#2F64FF"/>
</svg>
