<svg width="10" height="20" viewBox="0 0 10 20" fill="none" xmlns="http://www.w3.org/2000/svg">
<path d="M8.74992 4.9987V14.582C8.74992 16.4237 7.25825 17.9154 5.41659 17.9154C3.57492 17.9154 2.08325 16.4237 2.08325 14.582V4.16536C2.08325 3.61283 2.30275 3.08293 2.69345 2.69223C3.08415 2.30152 3.61405 2.08203 4.16659 2.08203C4.71912 2.08203 5.24902 2.30152 5.63972 2.69223C6.03043 3.08293 6.24992 3.61283 6.24992 4.16536V12.9154C6.24992 13.3737 5.87492 13.7487 5.41659 13.7487C4.95825 13.7487 4.58325 13.3737 4.58325 12.9154V4.9987H3.33325V12.9154C3.33325 13.4679 3.55275 13.9978 3.94345 14.3885C4.33415 14.7792 4.86405 14.9987 5.41659 14.9987C5.96912 14.9987 6.49902 14.7792 6.88972 14.3885C7.28043 13.9978 7.49992 13.4679 7.49992 12.9154V4.16536C7.49992 2.3237 6.00825 0.832031 4.16659 0.832031C2.32492 0.832031 0.833252 2.3237 0.833252 4.16536V14.582C0.833252 17.1154 2.88325 19.1654 5.41659 19.1654C7.94992 19.1654 9.99992 17.1154 9.99992 14.582V4.9987H8.74992Z" fill="#747272"/>
</svg>
