<svg width="14" height="14" viewBox="0 0 14 14" fill="none" xmlns="http://www.w3.org/2000/svg">
<path d="M0.333252 11.0435V13.295C0.333252 13.5024 0.496193 13.6654 0.703572 13.6654H2.95512C3.0514 13.6654 3.14768 13.6283 3.21434 13.5543L11.3021 5.47388L8.52473 2.69648L0.444348 10.7769C0.370284 10.8509 0.333252 10.9398 0.333252 11.0435ZM13.45 2.28173L11.7169 0.548627C11.6484 0.479967 11.567 0.425495 11.4774 0.388328C11.3878 0.351162 11.2917 0.332031 11.1947 0.332031C11.0977 0.332031 11.0017 0.351162 10.9121 0.388328C10.8225 0.425495 10.7411 0.479967 10.6726 0.548627L9.31722 1.904L12.0946 4.6814L13.45 3.32603C13.5186 3.25751 13.5731 3.17612 13.6103 3.08652C13.6475 2.99692 13.6666 2.90088 13.6666 2.80388C13.6666 2.70688 13.6475 2.61083 13.6103 2.52123C13.5731 2.43163 13.5186 2.35024 13.45 2.28173V2.28173Z" fill="#2F64FF"/>
</svg>
