<svg xmlns="http://www.w3.org/2000/svg" width="18" height="14.727" viewBox="0 0 18 14.727">
  <path id="Path_77" data-name="Path 77" d="M.818,1.039,1.865,0l13.68,13.68-1.039,1.047-2.52-2.52A9.473,9.473,0,0,1,9,12.682,9.676,9.676,0,0,1,0,6.545,9.617,9.617,0,0,1,2.61,2.831ZM9,4.091a2.458,2.458,0,0,1,2.315,3.273L8.182,4.23A2.454,2.454,0,0,1,9,4.091ZM9,.409a9.676,9.676,0,0,1,9,6.136,9.646,9.646,0,0,1-3.273,4.246l-1.162-1.17a8.069,8.069,0,0,0,2.651-3.076A8.035,8.035,0,0,0,9,2.045a8.506,8.506,0,0,0-2.585.409L5.155,1.2A9.707,9.707,0,0,1,9,.409ZM1.784,6.545A8.035,8.035,0,0,0,9,11.045a7.6,7.6,0,0,0,1.636-.172L8.771,9A2.507,2.507,0,0,1,6.545,6.775L3.764,3.985a8.063,8.063,0,0,0-1.98,2.561Z" fill="#2f64ff"/>
</svg>
