<svg xmlns="http://www.w3.org/2000/svg" width="22" height="22" viewBox="0 0 22 22">
  <path id="instagram" d="M7.465,1.066C8.638,1.012,9.012,1,12,1s3.362.013,4.534.066a8.1,8.1,0,0,1,2.672.511,5.631,5.631,0,0,1,3.216,3.217,8.09,8.09,0,0,1,.512,2.67C22.988,8.639,23,9.013,23,12s-.013,3.362-.066,4.535a8.064,8.064,0,0,1-.512,2.67,5.616,5.616,0,0,1-3.216,3.217,8.09,8.09,0,0,1-2.67.512C15.362,22.988,14.988,23,12,23s-3.362-.013-4.535-.066a8.064,8.064,0,0,1-2.67-.512,5.4,5.4,0,0,1-1.949-1.268,5.392,5.392,0,0,1-1.269-1.948,8.119,8.119,0,0,1-.511-2.67C1.012,15.361,1,14.987,1,12s.013-3.362.066-4.534a8.1,8.1,0,0,1,.511-2.672,5.4,5.4,0,0,1,1.27-1.948A5.392,5.392,0,0,1,4.794,1.577a8.119,8.119,0,0,1,2.67-.511Zm8.98,1.98c-1.16-.053-1.508-.064-4.445-.064s-3.285.011-4.445.064a6.08,6.08,0,0,0-2.043.379,3.416,3.416,0,0,0-1.265.822,3.412,3.412,0,0,0-.822,1.265,6.08,6.08,0,0,0-.379,2.043C2.993,8.715,2.982,9.063,2.982,12s.011,3.285.064,4.445a6.08,6.08,0,0,0,.379,2.043,3.633,3.633,0,0,0,2.087,2.087,6.08,6.08,0,0,0,2.043.379c1.16.053,1.507.064,4.445.064s3.285-.011,4.445-.064a6.08,6.08,0,0,0,2.043-.379,3.633,3.633,0,0,0,2.087-2.087,6.08,6.08,0,0,0,.379-2.043c.053-1.16.064-1.508.064-4.445s-.011-3.285-.064-4.445a6.08,6.08,0,0,0-.379-2.043,3.416,3.416,0,0,0-.822-1.265,3.413,3.413,0,0,0-1.265-.822,6.08,6.08,0,0,0-2.043-.379ZM10.6,15.391a3.67,3.67,0,1,0-1.314-.926A3.669,3.669,0,0,0,10.6,15.391ZM8,8a5.654,5.654,0,1,1-1.656,4A5.654,5.654,0,0,1,8,8Zm10.906-.814a1.337,1.337,0,1,0-.937.364,1.336,1.336,0,0,0,.937-.364Z" transform="translate(-1 -1)" fill="#fff"/>
</svg>
