<svg xmlns="http://www.w3.org/2000/svg" width="22" height="22" viewBox="0 0 22 22">
  <path id="Path_90" data-name="Path 90" d="M6.465.066C7.638.012,8.012,0,11,0s3.362.013,4.534.066a8.1,8.1,0,0,1,2.672.511,5.631,5.631,0,0,1,3.216,3.217,8.09,8.09,0,0,1,.512,2.67C21.988,7.639,22,8.013,22,11s-.013,3.362-.066,4.535a8.064,8.064,0,0,1-.512,2.67,5.616,5.616,0,0,1-3.216,3.217,8.09,8.09,0,0,1-2.67.512C14.362,21.988,13.988,22,11,22s-3.362-.013-4.535-.066a8.064,8.064,0,0,1-2.67-.512,5.4,5.4,0,0,1-1.949-1.268A5.392,5.392,0,0,1,.577,18.206a8.119,8.119,0,0,1-.511-2.67C.012,14.361,0,13.987,0,11S.013,7.638.066,6.466A8.1,8.1,0,0,1,.577,3.794a5.4,5.4,0,0,1,1.27-1.948A5.392,5.392,0,0,1,3.794.577,8.119,8.119,0,0,1,6.464.066Zm8.98,1.98c-1.16-.053-1.508-.064-4.445-.064s-3.285.011-4.445.064a6.08,6.08,0,0,0-2.043.379,3.416,3.416,0,0,0-1.265.822,3.412,3.412,0,0,0-.822,1.265,6.08,6.08,0,0,0-.379,2.043C1.993,7.715,1.982,8.063,1.982,11s.011,3.285.064,4.445a6.08,6.08,0,0,0,.379,2.043,3.415,3.415,0,0,0,.822,1.265,3.415,3.415,0,0,0,1.265.822,6.08,6.08,0,0,0,2.043.379c1.16.053,1.507.064,4.445.064s3.285-.011,4.445-.064a6.08,6.08,0,0,0,2.043-.379,3.633,3.633,0,0,0,2.087-2.087,6.08,6.08,0,0,0,.379-2.043c.053-1.16.064-1.508.064-4.445s-.011-3.285-.064-4.445a6.08,6.08,0,0,0-.379-2.043,3.416,3.416,0,0,0-.822-1.265,3.413,3.413,0,0,0-1.265-.822,6.08,6.08,0,0,0-2.043-.379ZM9.6,14.391a3.67,3.67,0,1,0-1.314-.926A3.669,3.669,0,0,0,9.6,14.391ZM7,7a5.654,5.654,0,1,1-1.656,4A5.654,5.654,0,0,1,7,7Zm10.906-.814a1.337,1.337,0,1,0-.937.364,1.336,1.336,0,0,0,.937-.364Z" fill="#fff" fill-rule="evenodd"/>
</svg>
