<svg xmlns="http://www.w3.org/2000/svg" xmlns:xlink="http://www.w3.org/1999/xlink" width="48" height="48" viewBox="0 0 48 48">
  <defs>
    <clipPath id="clip-path">
      <rect id="Rectangle_67" data-name="Rectangle 67" width="48" height="48" fill="#fff"/>
    </clipPath>
  </defs>
  <g id="Mask_Group_177" data-name="Mask Group 177" clip-path="url(#clip-path)">
    <path id="Path_118" data-name="Path 118" d="M47.351,42.925,21.635,19.513l1.2-1.2a5.49,5.49,0,0,0,1.59-3.543,1.172,1.172,0,0,0,.138-.069l4.827-3.018a2.028,2.028,0,0,0-.108-2.694L20.882.571A2.019,2.019,0,0,0,18.194.463L15.182,5.3l-.066.138a5.456,5.456,0,0,0-3.534,1.593L7.016,11.617a5.475,5.475,0,0,0-1.59,3.543,1.183,1.183,0,0,0-.138.069L.461,18.247a2.028,2.028,0,0,0,.108,2.694l8.4,8.418a2.019,2.019,0,0,0,2.688.108l3.012-4.842.069-.138a5.456,5.456,0,0,0,3.534-1.593L19.6,21.565,42.944,47.353a1.61,1.61,0,0,0,2.319.267l2.361-2.367a1.622,1.622,0,0,0-.267-2.325Z" transform="translate(0.001 0.002)" fill="#fff"/>
  </g>
</svg>
