<svg xmlns="http://www.w3.org/2000/svg" width="26" height="26" viewBox="0 0 23.04 23.04">
  <path id="linkedin" d="M78,.48A11.52,11.52,0,1,0,89.52,12,11.52,11.52,0,0,0,78,.48ZM75.18,16.775H72.847V9.268H75.18ZM74,8.346a1.169,1.169,0,1,1,1.258-1.168A1.163,1.163,0,0,1,74,8.346Zm9.7,8.429H81.367v-4.16c0-.968-.338-1.626-1.182-1.626a1.281,1.281,0,0,0-1.2.874,1.651,1.651,0,0,0-.078.583v4.328H76.577V11.662c0-.937-.03-1.721-.061-2.4h2.027l.107,1.043H78.7A2.7,2.7,0,0,1,81.014,9.1c1.535,0,2.686,1.028,2.686,3.239v4.439Z" transform="translate(-66.48 -0.48)" fill="#fff"/>
</svg>
