<svg id="linkedin-icon" xmlns="http://www.w3.org/2000/svg" width="20.034" height="20" viewBox="0 0 20.034 20">
  <path id="Path_88" data-name="Path 88" d="M4.983,7.2A2.188,2.188,0,1,0,2.8,5.009,2.188,2.188,0,0,0,4.983,7.2Z" transform="translate(-2.795 -2.821)" fill="#fff"/>
  <path id="Path_89" data-name="Path 89" d="M9.864,8.855V20.994h4.154v-6c0-1.584.328-3.118,2.493-3.118,2.135,0,2.161,1.811,2.161,3.218V21h4.156V14.338c0-3.27-.776-5.783-4.988-5.783a4.465,4.465,0,0,0-3.932,1.96h-.056V8.855Zm-6.769,0H7.256V20.994H3.1Z" transform="translate(-2.795 -0.995)" fill="#fff"/>
</svg>
