<svg width="14" height="19" viewBox="0 0 14 19" fill="none" xmlns="http://www.w3.org/2000/svg">
<path d="M12 6.66732H11.1667V5.00065C11.1667 2.70065 9.30004 0.833984 7.00004 0.833984C4.70004 0.833984 2.83337 2.70065 2.83337 5.00065V6.66732H2.00004C1.08337 6.66732 0.333374 7.41732 0.333374 8.33398V16.6673C0.333374 17.584 1.08337 18.334 2.00004 18.334H12C12.9167 18.334 13.6667 17.584 13.6667 16.6673V8.33398C13.6667 7.41732 12.9167 6.66732 12 6.66732ZM7.00004 14.1673C6.08337 14.1673 5.33337 13.4173 5.33337 12.5007C5.33337 11.584 6.08337 10.834 7.00004 10.834C7.91671 10.834 8.66671 11.584 8.66671 12.5007C8.66671 13.4173 7.91671 14.1673 7.00004 14.1673ZM4.50004 6.66732V5.00065C4.50004 3.61732 5.61671 2.50065 7.00004 2.50065C8.38337 2.50065 9.50004 3.61732 9.50004 5.00065V6.66732H4.50004Z" fill="#2F64FF"/>
</svg>
