<svg xmlns="http://www.w3.org/2000/svg" width="56.727" height="48" viewBox="0 0 56.727 48">
  <path id="Path_59" data-name="Path 59" d="M54.614,3.75h-48A4.364,4.364,0,0,0,2.25,8.114V47.386A4.363,4.363,0,0,0,6.614,51.75h3.655A2.155,2.155,0,0,0,12.232,50.5a13.118,13.118,0,0,1,23.673,0,2.155,2.155,0,0,0,1.964,1.254H54.614a4.363,4.363,0,0,0,4.364-4.364V8.114A4.363,4.363,0,0,0,54.614,3.75ZM24.068,38.659A8.754,8.754,0,1,1,30.231,36.1,8.726,8.726,0,0,1,24.068,38.659Zm30.545,8.727H39.177A17.365,17.365,0,0,0,35.6,43.023H48.068a2.182,2.182,0,0,0,2.182-2.182V14.659a2.182,2.182,0,0,0-2.182-2.182H13.159a2.182,2.182,0,0,0-2.182,2.182V40.841a2.182,2.182,0,0,0,1.636,2.1,17.507,17.507,0,0,0-3.655,4.445H6.614V8.114h48Z" transform="translate(-2.25 -3.75)" fill="#fff"/>
</svg>
