<svg width="4" height="14" viewBox="0 0 4 14" fill="none" xmlns="http://www.w3.org/2000/svg">
<path d="M1.99992 3.66536C2.91658 3.66536 3.66658 2.91536 3.66658 1.9987C3.66658 1.08203 2.91658 0.332031 1.99992 0.332031C1.08325 0.332031 0.333252 1.08203 0.333252 1.9987C0.333252 2.91536 1.08325 3.66536 1.99992 3.66536ZM1.99992 5.33203C1.08325 5.33203 0.333252 6.08203 0.333252 6.9987C0.333252 7.91536 1.08325 8.66536 1.99992 8.66536C2.91658 8.66536 3.66658 7.91536 3.66658 6.9987C3.66658 6.08203 2.91658 5.33203 1.99992 5.33203ZM1.99992 10.332C1.08325 10.332 0.333252 11.082 0.333252 11.9987C0.333252 12.9154 1.08325 13.6654 1.99992 13.6654C2.91658 13.6654 3.66658 12.9154 3.66658 11.9987C3.66658 11.082 2.91658 10.332 1.99992 10.332Z" fill="#747272"/>
</svg>
