<svg xmlns="http://www.w3.org/2000/svg" width="16.39" height="19.5" viewBox="0 0 16.39 19.5">
  <path id="bell-off-icon" d="M12,22a2.006,2.006,0,0,0,2-2H10A2.006,2.006,0,0,0,12,22ZM12,6.5c2.49,0,4,2.02,4,4.5v.1l2,2V11c0-3.07-1.63-5.64-4.5-6.32V4a1.5,1.5,0,0,0-3,0v.68a6.974,6.974,0,0,0-.69.23l1.64,1.64A4.886,4.886,0,0,1,12,6.5ZM5.41,3.35,4,4.76,6.81,7.57A7.418,7.418,0,0,0,6,11v5L4,18v1H18.24l1.74,1.74,1.41-1.41ZM16,17H8V11a5.344,5.344,0,0,1,.34-1.9L16,16.76Z" transform="translate(-4 -2.5)" fill="#2f64ff"/>
</svg>
