<svg xmlns="http://www.w3.org/2000/svg" xmlns:xlink="http://www.w3.org/1999/xlink" width="25.099" height="25.88" viewBox="0 0 25.099 25.88">
  <defs>
    <linearGradient id="linear-gradient" x1="0.597" y1="1.389" x2="0.403" y2="-0.389" gradientUnits="objectBoundingBox">
      <stop offset="0.127" stop-color="#8a0000"/>
      <stop offset="0.244" stop-color="#900000"/>
      <stop offset="0.398" stop-color="#a00000"/>
      <stop offset="0.573" stop-color="#bc0000" stop-opacity="0.996"/>
      <stop offset="0.761" stop-color="#e20000" stop-opacity="0.996"/>
      <stop offset="0.867" stop-color="#fa0000" stop-opacity="0.996"/>
    </linearGradient>
    <linearGradient id="linear-gradient-2" x1="0.601" y1="1.357" x2="0.399" y2="-0.357" gradientUnits="objectBoundingBox">
      <stop offset="0.315" stop-color="#5e0000"/>
      <stop offset="0.444" stop-color="#830000"/>
      <stop offset="0.618" stop-color="#ae0000" stop-opacity="0.996"/>
      <stop offset="0.775" stop-color="#cd0000" stop-opacity="0.996"/>
      <stop offset="0.908" stop-color="#e00000" stop-opacity="0.996"/>
      <stop offset="1" stop-color="#e70000" stop-opacity="0.996"/>
    </linearGradient>
  </defs>
  <g id="pdf_icon" data-name="pdf icon" transform="translate(-3.339 -2.912)">
    <path id="Path_119" data-name="Path 119" d="M9.064,3.162h11.6A31.46,31.46,0,0,1,28.188,10.7V28.542H9.064Z" fill="#fff"/>
    <path id="Path_120" data-name="Path 120" d="M9.064,3.162h11.6A31.46,31.46,0,0,1,28.188,10.7V28.542H9.064Z" fill="none" stroke="#c8c8c8" stroke-width="0.5"/>
    <path id="Path_121" data-name="Path 121" d="M20.662,3.162A31.806,31.806,0,0,1,28.188,10.7a6.765,6.765,0,0,0-5.332-2.03,6.025,6.025,0,0,0-2.194-5.508Z" fill="#fff"/>
    <path id="Path_122" data-name="Path 122" d="M20.662,3.162A31.806,31.806,0,0,1,28.188,10.7a6.765,6.765,0,0,0-5.332-2.03,6.025,6.025,0,0,0-2.194-5.508Z" fill="none" stroke="#c8c8c8" stroke-width="0.5"/>
    <path id="Path_123" data-name="Path 123" d="M5.339,6.5h14.1V9.2H5.339Z" fill="none" stroke="#c8c8c8" stroke-width="4"/>
    <path id="Path_124" data-name="Path 124" d="M15.819,19.855c.466-.914,1-1.943,1.42-2.977l.168-.408c-.554-2.108-.886-3.8-.589-4.894a.755.755,0,0,1,.763-.458h.254c.484-.007.711.608.737.847a3.848,3.848,0,0,1-.141,1.072,2.64,2.64,0,0,0-.161-1.091c-.2-.439-.391-.7-.562-.743a.54.54,0,0,0-.2.407,5.862,5.862,0,0,0-.077.939,10.509,10.509,0,0,0,.433,2.729c.054-.156.1-.306.14-.447.059-.222.433-1.691.433-1.691s-.094,1.956-.226,2.547c-.028.125-.059.249-.092.375a8.584,8.584,0,0,0,2.145,3.351,6.691,6.691,0,0,0,1.24.852,16.911,16.911,0,0,1,2.517-.189,3.154,3.154,0,0,1,1.938.433.738.738,0,0,1,.213.484,1.451,1.451,0,0,1-.041.282c.01-.051.01-.3-.755-.546a8.911,8.911,0,0,0-3.086-.043c1.566.766,3.093,1.147,3.576.919a1.016,1.016,0,0,0,.262-.254,2.731,2.731,0,0,1-.146.484.764.764,0,0,1-.377.258c-.764.2-2.752-.268-4.485-1.258a36.628,36.628,0,0,0-5.768,1.371c-1.675,2.936-2.935,4.284-3.959,3.771l-.377-.189a.436.436,0,0,1-.141-.474c.119-.584.852-1.465,2.324-2.344.158-.1.864-.469.864-.469s-.523.506-.645.605c-1.175.963-2.042,2.174-2.021,2.644v.041c1-.142,2.495-2.174,4.419-5.939Zm.607.309q-.453.847-.926,1.682a24.585,24.585,0,0,1,4.975-1.408q-.33-.227-.637-.485a8.528,8.528,0,0,1-2.1-2.729,23.391,23.391,0,0,1-1.317,2.94" fill="#f91d0a"/>
    <path id="Path_125" data-name="Path 125" d="M3.75,4.968H21.014v5.8H3.75Z" fill="url(#linear-gradient)"/>
    <path id="Path_126" data-name="Path 126" d="M21.343,11.119H3.437V4.62H21.343ZM20.7,5.264H4.081v5.209H20.7Z" fill="url(#linear-gradient-2)"/>
    <path id="Path_127" data-name="Path 127" d="M8.262,5.819H9.518a1.1,1.1,0,0,1,.859.331,1.338,1.338,0,0,1,.3.937,1.351,1.351,0,0,1-.3.942,1.1,1.1,0,0,1-.859.328h-.5V9.706H8.262Zm.757.726V7.631h.419a.423.423,0,0,0,.34-.141.611.611,0,0,0,.12-.4.6.6,0,0,0-.12-.4.422.422,0,0,0-.34-.141H9.019Zm2.949.035V8.949h.271a.853.853,0,0,0,.708-.3,1.382,1.382,0,0,0,.246-.885,1.375,1.375,0,0,0-.244-.88.858.858,0,0,0-.71-.3h-.271Zm-.757-.754h.8A2.9,2.9,0,0,1,13,5.947a1.284,1.284,0,0,1,.562.427,1.78,1.78,0,0,1,.307.607,2.785,2.785,0,0,1,.1.779,2.834,2.834,0,0,1-.1.786,1.781,1.781,0,0,1-.307.607,1.313,1.313,0,0,1-.566.43,2.965,2.965,0,0,1-.991.125h-.8V5.819Zm3.336-.007H16.6v.758H15.31V7.3h1.209v.758H15.31V9.706h-.757V5.819" fill="#fff9f9"/>
  </g>
</svg>
