<svg xmlns="http://www.w3.org/2000/svg" xmlns:xlink="http://www.w3.org/1999/xlink" width="42" height="42" viewBox="0 0 42 42">
  <defs>
    <filter id="Ellipse_4" x="0" y="0" width="42" height="42" filterUnits="userSpaceOnUse">
      <feOffset input="SourceAlpha"/>
      <feGaussianBlur stdDeviation="3" result="blur"/>
      <feFlood flood-opacity="0.251"/>
      <feComposite operator="in" in2="blur"/>
      <feComposite in="SourceGraphic"/>
    </filter>
  </defs>
  <g id="horizontal-scroll-arrow" transform="translate(-913 -456)">
    <g transform="matrix(1, 0, 0, 1, 913, 456)" filter="url(#Ellipse_4)">
      <circle id="Ellipse_4-2" data-name="Ellipse 4" cx="12" cy="12" r="12" transform="translate(9 9)" fill="#2f64ff"/>
    </g>
    <path id="Path_55" data-name="Path 55" d="M9.4,9.221c.486-.878,1.421-1.4,1.964-2.173A1.488,1.488,0,0,0,9.988,4.712,1.92,1.92,0,0,0,8.176,6.189L6.54,5.5A3.574,3.574,0,0,1,9.982,3,3.391,3.391,0,0,1,13,4.522a3.036,3.036,0,0,1,.019,3.095c-.758,1.118-1.484,1.459-1.876,2.179-.158.291-.221.48-.221,1.415H9.1A3.818,3.818,0,0,1,9.4,9.221Zm1.851,4.516a1.263,1.263,0,1,1-1.263-1.263A1.267,1.267,0,0,1,11.252,13.737Z" transform="translate(924.011 467.787)" fill="#fff"/>
  </g>
</svg>
