<svg xmlns="http://www.w3.org/2000/svg" width="20" height="21" viewBox="0 0 23.345 24">
  <path id="Path_51" data-name="Path 51" d="M22.862,15.176A9.352,9.352,0,0,0,22.946,14a9.352,9.352,0,0,0-.084-1.176l2.532-1.98a.605.605,0,0,0,.144-.768l-2.4-4.152a.6.6,0,0,0-.732-.264l-2.988,1.2A8.767,8.767,0,0,0,17.39,5.684L16.934,2.5a.586.586,0,0,0-.588-.5h-4.8a.585.585,0,0,0-.588.5L10.5,5.684A9.219,9.219,0,0,0,8.474,6.86L5.486,5.66a.679.679,0,0,0-.216-.036.594.594,0,0,0-.516.3l-2.4,4.152a.592.592,0,0,0,.144.768l2.532,1.98A9.517,9.517,0,0,0,4.946,14a9.517,9.517,0,0,0,.084,1.176L2.5,17.156a.605.605,0,0,0-.144.768l2.4,4.152a.6.6,0,0,0,.732.264l2.988-1.2A8.767,8.767,0,0,0,10.5,22.316l.456,3.18a.585.585,0,0,0,.588.5h4.8a.585.585,0,0,0,.588-.5l.456-3.18a9.219,9.219,0,0,0,2.028-1.176l2.988,1.2a.68.68,0,0,0,.216.036.594.594,0,0,0,.516-.3l2.4-4.152a.605.605,0,0,0-.144-.768l-2.532-1.98Zm-2.376-2.052a6.411,6.411,0,0,1,.06.876c0,.252-.024.516-.06.876l-.168,1.356,1.068.84,1.3,1.008-.84,1.452-1.524-.612-1.248-.5-1.08.816a7.028,7.028,0,0,1-1.5.876l-1.272.516-.192,1.356-.24,1.62h-1.68l-.228-1.62-.192-1.356-1.272-.516a6.809,6.809,0,0,1-1.476-.852l-1.092-.84-1.272.516-1.524.612-.84-1.452,1.3-1.008,1.068-.84-.168-1.356c-.036-.372-.06-.648-.06-.888s.024-.516.06-.876l.168-1.356-1.068-.84L5.21,9.92l.84-1.452,1.524.612,1.248.5L9.9,8.768a7.028,7.028,0,0,1,1.5-.876l1.272-.516.192-1.356.24-1.62h1.668L15,6.02l.192,1.356,1.272.516a6.809,6.809,0,0,1,1.476.852l1.092.84,1.272-.516,1.524-.612.84,1.452-1.284,1.02-1.068.84ZM13.946,9.2a4.8,4.8,0,1,0,4.8,4.8A4.8,4.8,0,0,0,13.946,9.2Zm0,7.2a2.4,2.4,0,1,1,2.4-2.4A2.407,2.407,0,0,1,13.946,16.4Z" transform="translate(-2.271 -2)" fill="#fff"/>
</svg>
