<svg xmlns="http://www.w3.org/2000/svg" width="24" height="26.56" viewBox="0 0 24 26.56">
  <path id="Path_135" data-name="Path 135" d="M23,20.773A3.883,3.883,0,0,0,20.387,21.8L10.88,16.267a4.365,4.365,0,0,0,.12-.933,4.365,4.365,0,0,0-.12-.933l9.4-5.48A3.991,3.991,0,1,0,19,6a4.365,4.365,0,0,0,.12.933l-9.4,5.48a4,4,0,1,0,0,5.84L19.213,23.8a3.761,3.761,0,0,0-.107.867A3.893,3.893,0,1,0,23,20.773ZM23,4.667A1.333,1.333,0,1,1,21.667,6,1.337,1.337,0,0,1,23,4.667Zm-16,12a1.333,1.333,0,1,1,1.333-1.333A1.337,1.337,0,0,1,7,16.667Zm16,9.36a1.333,1.333,0,1,1,1.333-1.333A1.337,1.337,0,0,1,23,26.027Z" transform="translate(-3 -2)" fill="#747272"/>
</svg>
