<svg id="Group_2" data-name="Group 2" xmlns="http://www.w3.org/2000/svg" width="40" height="46" viewBox="0 0 40 46">
  <path id="projectset-logo-temp" d="M16,10a6,6,0,1,1-6-6A6,6,0,0,1,16,10Zm-.909,8.609a10.025,10.025,0,0,0,4.5-5.762l4.433.556Q24,13.7,24,14a7.973,7.973,0,0,0,2.223,5.534L22.1,23.661A11.945,11.945,0,0,0,16,22q-.4,0-.792.026Zm-2.962,1.164A10,10,0,1,1,20,9.875l4.816.6a8,8,0,1,1,3.892,10.814l-4.222,4.222a12,12,0,1,1-12.259-2.909ZM23,34a7,7,0,1,1-7-7A7,7,0,0,1,23,34Zm9-15a5,5,0,1,0-5-5A5,5,0,0,0,32,19Z" fill="#fff" fill-rule="evenodd"/>
</svg>
