<svg width="112" height="112" viewBox="0 0 112 112" fill="none" xmlns="http://www.w3.org/2000/svg">
<path d="M40.7166 96.9937C46.6592 100.576 50.8987 99.0886 52.5217 96.2163C55.6605 90.6616 66.0967 79.3028 82.635 75.4637C104.539 70.3789 99.9647 56.878 86.4994 49.7933C73.034 42.7086 62.9658 32.9056 64.4896 22.2467C66.0134 11.5877 50.9152 7.91318 44.2008 28.4175C39.8618 41.6681 32.0861 45.218 27.1276 46.0714C22.4543 46.8756 17.3424 47.8846 14.8495 51.9184C11.8246 56.8128 12.8802 61.7638 25.5448 65.1595C43.4917 69.9715 27.3964 88.9647 40.7166 96.9937Z" fill="#D5DFFF"/>
<path d="M25.2762 73.7683C25.5277 73.6244 28.3662 72.4227 42.4874 79.0059C42.4462 79.0619 42.4288 79.0884 42.4288 79.0884C42.4288 79.0884 27.7484 84.0323 24.8721 77.9417C24.0132 76.1286 24.2593 74.88 25.2517 73.7824L25.2762 73.7683Z" fill="#18009E"/>
<path d="M72.7386 76.2602C69.6707 78.8393 64.8594 80.7114 60.217 78.222C60.9506 77.7532 61.7084 77.2704 62.4812 76.7709C67.1433 73.7754 71.2499 75.7797 72.7386 76.2602Z" fill="#18009E"/>
<path d="M78.234 44.5386C81.3685 70.6394 73.9195 75.3764 73.0902 76.0959C72.8501 76.3042 72.7528 76.2891 72.3898 76.1956L72.3837 76.1991C70.8474 75.7918 67.1434 73.7751 62.4811 76.7703C61.7083 77.2698 60.9503 77.7526 60.2169 78.2214C55.4609 81.2378 51.6202 83.3635 48.8531 82.1298C46.5061 80.9324 44.3899 79.8963 42.4875 79.0062C28.3663 72.423 25.5277 73.6246 25.2762 73.7687C25.5681 73.6097 28.245 72.1259 31.8495 69.5164C31.8618 69.5094 31.8741 69.5024 31.8767 69.4927C36.6946 66.0011 43.1467 60.4988 47.7845 53.4207C50.9418 48.6077 54.0305 36.4059 59.9899 34.0118C72.2377 29.4428 77.7255 39.2296 78.234 44.5386Z" fill="#2F64FF"/>
<path d="M64.6913 44.0808C65.0714 43.0769 65.0344 42.1323 64.6085 41.971C64.1826 41.8097 63.5291 42.4928 63.149 43.4967C62.7688 44.5006 62.8058 45.4452 63.2317 45.6065C63.6576 45.7678 64.3111 45.0847 64.6913 44.0808Z" fill="white"/>
<path d="M72.4897 45.3625C72.7591 44.3234 72.6202 43.3883 72.1793 43.274C71.7385 43.1597 71.1627 43.9094 70.8933 44.9486C70.6238 45.9877 70.7628 46.9227 71.2036 47.0371C71.6444 47.1514 72.2202 46.4016 72.4897 45.3625Z" fill="white"/>
<path d="M67.7428 49.1762C67.6789 49.1762 67.617 49.1543 67.5673 49.1141C67.5175 49.074 67.483 49.0181 67.4695 48.9557C67.4196 48.7297 67.1975 48.0609 66.8453 47.9615C66.4932 47.8621 65.8025 48.248 65.523 48.4505C65.4629 48.494 65.3879 48.5119 65.3145 48.5002C65.2412 48.4884 65.1755 48.4481 65.132 48.3879C65.0884 48.3278 65.0705 48.2528 65.0823 48.1794C65.094 48.1061 65.1344 48.0404 65.1945 47.9969C65.3047 47.9171 66.291 47.2232 66.9974 47.4225C67.7341 47.6304 67.9899 48.7137 68.0166 48.8366C68.0255 48.8775 68.0251 48.9199 68.0155 48.9606C68.0059 49.0013 67.9872 49.0394 67.961 49.072C67.9347 49.1046 67.9014 49.1309 67.8637 49.1489C67.8259 49.1669 67.7845 49.1763 67.7427 49.1762H67.7428Z" fill="white"/>
</svg>
