
<svg version="1.1" id="Layer_1" xmlns="http://www.w3.org/2000/svg" xmlns:xlink="http://www.w3.org/1999/xlink" x="0px" y="0px"
	 viewBox="0 0 130 130" style="enable-background:new 0 0 130 130;" xml:space="preserve" width="20px" height="20px">
<style type="text/css">
	.st0{fill:#FFFFFF;}
</style>
<g>
	<path class="st0" d="M85.5,59.79c10.43,0,20.85,0,31.28,0c3.01,0,4.76,1.29,5.61,4.21c0.68,2.34,0.43,4.59-0.9,6.65
		c-0.95,1.47-2.29,2.25-4.12,2.25c-13.66-0.02-27.32,0-40.98,0c-7.33,0-14.66,0-21.99,0c-3.45,0-5.27-1.39-6-4.78
		c-0.53-2.43-0.13-4.72,1.49-6.69c0.92-1.11,2.11-1.66,3.58-1.66C64.14,59.79,74.82,59.79,85.5,59.79z"/>
	<path class="st0" d="M85.47,23.6c-10.51,0-21.02-0.04-31.53,0.02c-2.61,0.02-4.24-1.21-5.13-3.48c-1.11-2.84-0.85-5.58,1.11-8.03
		c0.91-1.14,2.13-1.64,3.59-1.64c19.07,0.01,38.14,0.01,57.21,0.01c2.01,0,4.01,0,6.02-0.01c3.06-0.01,4.84,1.28,5.67,4.25
		c0.71,2.53,0.39,4.93-1.22,7.05c-0.93,1.22-2.17,1.83-3.75,1.83C106.77,23.59,96.12,23.6,85.47,23.6z"/>
	<path class="st0" d="M85.5,122.18c-10.56,0-21.13-0.03-31.69,0.02c-2.39,0.01-3.89-1.1-4.86-3.12c-1.33-2.76-0.85-6.43,1.04-8.48
		c0.99-1.07,2.19-1.53,3.65-1.52c7.53,0.02,15.05,0.01,22.58,0.01c13.44,0,26.87,0,40.31,0c3.63,0,5.81,1.94,6.16,5.59
		c0.22,2.34-0.27,4.5-1.99,6.23c-0.84,0.85-1.86,1.27-3.07,1.27C106.91,122.17,96.21,122.18,85.5,122.18z"/>
	<path class="st0" d="M21.88,18.04c0.87-0.96,1.71-1.88,2.54-2.81c3.3-3.67,6.58-7.35,9.89-11.01c1.54-1.7,3.49-2.29,5.69-1.68
		c2.12,0.6,3.49,2.06,3.96,4.23c0.4,1.82-0.04,3.51-1.29,4.9c-5.47,6.1-10.94,12.2-16.44,18.27c-2.09,2.31-5.6,2.44-7.87,0.3
		c-3.18-3-6.34-6.04-9.46-9.1c-2.2-2.16-2.2-5.59-0.08-7.83c2.05-2.16,5.53-2.31,7.77-0.27c1.57,1.42,3.07,2.92,4.6,4.38
		C21.4,17.63,21.61,17.8,21.88,18.04z"/>
	<path class="st0" d="M21.86,67.37c2.33-2.59,4.59-5.1,6.84-7.61c1.86-2.07,3.72-4.15,5.59-6.22c2.09-2.31,5.44-2.59,7.74-0.65
		c2.44,2.06,2.84,5.49,0.76,7.91c-2.73,3.17-5.56,6.24-8.36,9.35c-2.63,2.92-5.26,5.84-7.89,8.76c-2.45,2.73-5.88,2.87-8.54,0.32
		c-3.04-2.92-6.1-5.8-9.08-8.77C6,67.55,7.04,62.73,10.9,61.29c2.16-0.81,4.18-0.38,5.88,1.22C18.46,64.09,20.12,65.7,21.86,67.37z"
		/>
	<circle class="st0" cx="25.69" cy="115.64" r="12.05"/>
</g>
</svg>
