<svg xmlns="http://www.w3.org/2000/svg" width="10" height="10" viewBox="0 0 10 10">
  <g id="horizontal-scroll-arrow" transform="translate(-921.777 -464.777)">
    <circle id="Ellipse_4" data-name="Ellipse 4" cx="5" cy="5" r="5" transform="translate(921.777 464.777)" fill="#2f64ff"/>
    <path id="Path_55" data-name="Path 55" d="M7.971,6.111c.243-.439.711-.7.982-1.086a.744.744,0,0,0-.688-1.168.96.96,0,0,0-.906.739L6.54,4.251A1.787,1.787,0,0,1,8.261,3a1.7,1.7,0,0,1,1.509.761A1.518,1.518,0,0,1,9.78,5.308c-.379.559-.742.729-.938,1.089-.079.145-.111.24-.111.707H7.819A1.909,1.909,0,0,1,7.971,6.111ZM8.9,8.368a.632.632,0,1,1-.632-.632A.633.633,0,0,1,8.9,8.368Z" transform="translate(918.237 463.777)" fill="#fff"/>
  </g>
</svg>
