<svg xmlns="http://www.w3.org/2000/svg" width="24" height="24" viewBox="0 0 24 24">
  <path id="twitter" d="M13.5,1.5a12,12,0,1,0,12,12A12,12,0,0,0,13.5,1.5Zm5.767,9.046c.008.126.008.257.008.386A8.473,8.473,0,0,1,6.238,18.059a6.388,6.388,0,0,0,.718.037,5.968,5.968,0,0,0,3.694-1.27,2.976,2.976,0,0,1-2.78-2.062,3.256,3.256,0,0,0,1.342-.054,2.973,2.973,0,0,1-2.381-2.92v-.037a2.977,2.977,0,0,0,1.342.378A2.976,2.976,0,0,1,6.846,9.656a2.916,2.916,0,0,1,.4-1.5,8.445,8.445,0,0,0,6.134,3.11,2.984,2.984,0,0,1,5.079-2.721,5.878,5.878,0,0,0,1.888-.715,2.961,2.961,0,0,1-1.307,1.637A5.884,5.884,0,0,0,20.759,9a6.235,6.235,0,0,1-1.492,1.543Z" transform="translate(-1.5 -1.5)" fill="#fff"/>
</svg>
