<svg width="24" height="24" viewBox="0 0 24 24" fill="none" xmlns="http://www.w3.org/2000/svg">
<path d="M14 12C16.21 12 18 10.21 18 8C18 5.79 16.21 4 14 4C11.79 4 10 5.79 10 8C10 10.21 11.79 12 14 12ZM14 14C11.33 14 6 15.34 6 18V19C6 19.55 6.45 20 7 20H21C21.55 20 22 19.55 22 19V18C22 15.34 16.67 14 14 14Z" fill="#2F64FF" opacity="0.4"/>
<path d="M10 12C12.21 12 14 10.21 14 8C14 5.79 12.21 4 10 4C7.79 4 6 5.79 6 8C6 10.21 7.79 12 10 12ZM10 14C7.33 14 2 15.34 2 18V19C2 19.55 2.45 20 3 20H17C17.55 20 18 19.55 18 19V18C18 15.34 12.67 14 10 14Z" fill="#2F64FF"/>
</svg>
