<svg xmlns="http://www.w3.org/2000/svg" width="69.818" height="48" viewBox="0 0 69.818 48">
  <g id="Group_72" data-name="Group 72" transform="translate(0 -2)">
    <path id="Path_61" data-name="Path 61" d="M14.911,5.643a2.192,2.192,0,0,1,3.1,0l8.769,8.769a2.2,2.2,0,0,1-3.1,3.1l-5.025-5.029v16.63a2.192,2.192,0,1,1-4.384,0V12.487L9.246,17.516a2.2,2.2,0,0,1-3.1-3.1Z" transform="translate(18.446 10.013)" fill-rule="evenodd"/>
    <path id="Path_62" data-name="Path 62" d="M19.226,7.856A24.131,24.131,0,0,1,34.909,2c11.738,0,21.482,8.727,22.543,19.981A14.064,14.064,0,0,1,55.361,50H16.5A16.289,16.289,0,0,1,0,33.933,16.177,16.177,0,0,1,12.838,18.255c.624-3.766,3.046-7.519,6.388-10.4Zm2.849,3.3c-3.3,2.849-5.031,6.284-5.031,8.972v1.955L15.1,22.3A11.866,11.866,0,0,0,4.364,33.933,11.923,11.923,0,0,0,16.5,45.636H55.361a9.91,9.91,0,0,0,10.093-9.718A9.91,9.91,0,0,0,55.361,26.2H53.18V24.015c0-9.687-8.112-17.651-18.271-17.651a19.767,19.767,0,0,0-12.833,4.8Z" transform="translate(0 0)"/>
  </g>
</svg>
