<svg xmlns="http://www.w3.org/2000/svg" width="24" height="16" viewBox="0 0 24 16">
  <path id="Path_57" data-name="Path 57" d="M5.667,19.333H19V8.667H5.667ZM4.333,6h16a1.337,1.337,0,0,1,1.333,1.333V12L27,6.667V21.333L21.667,16v4.667A1.337,1.337,0,0,1,20.333,22h-16A1.337,1.337,0,0,1,3,20.667V7.333A1.337,1.337,0,0,1,4.333,6ZM14.463,16.667l-2.129-2.129h0l2.129,2.129Zm-4.259,0-.537-.537h0l.537.537ZM11.8,14l-2.13-2.129h0L11.8,14Zm1.828,0,2.13-2.129-1.291-1.291-2.129,2.13-2.13-2.13L8.912,11.871,11.042,14l-2.13,2.13L10.2,17.421l2.13-2.129,2.129,2.129,1.291-1.291Z" transform="translate(-3 -6)" fill="#2f64ff" fill-rule="evenodd"/>
</svg>
