<svg id="website-icon" xmlns="http://www.w3.org/2000/svg" width="20" height="20" viewBox="0 0 20 20">
  <path id="Path_83" data-name="Path 83" d="M1.25,11.25A10,10,0,1,0,4.179,4.179,10,10,0,0,0,1.25,11.25Zm18.286,0a8.286,8.286,0,1,1-2.427-5.859,8.285,8.285,0,0,1,2.427,5.859Z" transform="translate(-1.25 -1.25)" fill="#fff" fill-rule="evenodd"/>
  <path id="Path_84" data-name="Path 84" d="M6.25,11.25c0,5.207,1.491,9.5,3.75,9.5s3.75-4.293,3.75-9.5S12.259,1.75,10,1.75,6.25,6.043,6.25,11.25Zm6,0c0,4.332-1.195,7.773-2.25,7.773S7.75,15.582,7.75,11.25,8.945,3.477,10,3.477,12.25,6.918,12.25,11.25Z" transform="translate(0 -1.25)" fill="#fff" fill-rule="evenodd"/>
  <path id="Path_85" data-name="Path 85" d="M3.6,5.467,4.793,4.355c.118.09.248.18.385.267a12.791,12.791,0,0,0,6.531,1.54A13.86,13.86,0,0,0,17.549,5a6.406,6.406,0,0,0,.97-.57l1.153,1.141a8.138,8.138,0,0,1-1.241.73,15.844,15.844,0,0,1-6.722,1.356,14.724,14.724,0,0,1-7.6-1.839q-.265-.167-.51-.355Z" transform="translate(-1.25 -0.703)" fill="#fff"/>
  <path id="Path_86" data-name="Path 86" d="M3.6,14.549l1.191,1.112c.118-.091.248-.18.385-.267a12.791,12.791,0,0,1,6.531-1.54,13.86,13.86,0,0,1,5.839,1.158,6.406,6.406,0,0,1,.97.57l1.153-1.141a8.273,8.273,0,0,0-1.241-.73,15.844,15.844,0,0,0-6.722-1.356,14.724,14.724,0,0,0-7.6,1.839q-.265.167-.51.355Z" transform="translate(-1.25 0.706)" fill="#fff"/>
  <path id="Path_87" data-name="Path 87" d="M1.75,10.75V9.25h19v1.5Z" transform="translate(-1.25)" fill="#fff"/>
</svg>
